<svg xmlns="http://www.w3.org/2000/svg" width="800" height="800"><rect width="662" height="17.403" x="130" y="101.753" fill="#ef3340"/><rect width="383.066" height="17.403" x="130" y="145.26" fill="#706f6f"/><rect width="271.612" height="17.403" x="130" y="188.766" fill="#706f6f"/><rect width="181.278" height="17.403" x="130" y="232.273" fill="#706f6f"/><rect width="154.768" height="17.403" x="130" y="275.779" fill="#706f6f"/><rect width="143.13" height="17.403" x="130" y="319.286" fill="#706f6f"/><rect width="138.052" height="17.403" x="130" y="362.792" fill="#706f6f"/><rect width="125.43" height="17.403" x="130" y="406.299" fill="#706f6f"/><rect width="118.105" height="17.403" x="130" y="449.805" fill="#706f6f"/><rect width="116.579" height="17.403" x="130" y="493.312" fill="#706f6f"/><rect width="104.982" height="17.403" x="130" y="536.818" fill="#706f6f"/><rect width="103.762" height="17.403" x="130" y="580.325" fill="#706f6f"/><rect width="100.317" height="17.403" x="130" y="623.831" fill="#706f6f"/><rect width="96.437" height="17.403" x="130" y="667.338" fill="#706f6f"/><rect width="91.937" height="17.403" x="130" y="710.844" fill="#706f6f"/><g fill="#fff" font-family="Futura,sans-serif" text-anchor="middle"><text x="461" y="110.455" dy=".35em">£1bn</text><text x="321.533" y="153.961" dy=".35em">£630m</text><text x="265.806" y="197.468" dy=".35em">£445m</text><text x="220.639" y="240.974" dy=".35em">£295m</text><text x="207.384" y="284.481" dy=".35em">£255m</text><text x="201.565" y="327.987" dy=".35em">£235m</text><text x="199.026" y="371.494" dy=".35em">£225m</text><text x="192.715" y="415" dy=".35em">£205m</text><text x="189.053" y="458.506" dy=".35em">£195m</text><text x="188.29" y="502.013" dy=".35em">£190m</text><text x="182.491" y="545.519" dy=".35em">£170m</text><text x="181.881" y="589.026" dy=".35em">£170m</text><text x="180.159" y="632.532" dy=".35em">£165m</text><text x="178.219" y="676.039" dy=".35em">£160m</text><text x="175.969" y="719.545" dy=".35em">£150m</text></g><g fill="none" font-family="sans-serif" font-size="10" text-anchor="end" style="font:13px Futura,sans-serif"><g class="tick" transform="translate(130 110.455)"><line stroke="currentColor"/><text x="-3" fill="currentColor" dy=".32em">Thurrock</text></g><g class="tick" transform="translate(130 153.961)"><line stroke="currentColor"/><text x="-3" fill="currentColor" dy=".32em">Lancashire</text></g><g class="tick" transform="translate(130 197.468)"><line stroke="currentColor"/><text x="-3" fill="currentColor" dy=".32em">Plymouth</text></g><g class="tick" transform="translate(130 240.974)"><line stroke="currentColor"/><text x="-3" fill="currentColor" dy=".32em">Croydon</text></g><g class="tick" transform="translate(130 284.48)"><line stroke="currentColor"/><text x="-3" fill="currentColor" dy=".32em">Surrey</text></g><g class="tick" transform="translate(130 327.987)"><line stroke="currentColor"/><text x="-3" fill="currentColor" dy=".32em">Rotherham</text></g><g class="tick" transform="translate(130 371.494)"><line stroke="currentColor"/><text x="-3" fill="currentColor" dy=".32em">Birmingham</text></g><g class="tick" transform="translate(130 415)"><line stroke="currentColor"/><text x="-3" fill="currentColor" dy=".32em">Slough</text></g><g class="tick" transform="translate(130 458.506)"><line stroke="currentColor"/><text x="-3" fill="currentColor" dy=".32em">Blackpool</text></g><g class="tick" transform="translate(130 502.013)"><line stroke="currentColor"/><text x="-3" fill="currentColor" dy=".32em">West Dunbartonshire</text></g><g class="tick" transform="translate(130 545.52)"><line stroke="currentColor"/><text x="-3" fill="currentColor" dy=".32em">Kingston upon Hull</text></g><g class="tick" transform="translate(130 589.026)"><line stroke="currentColor"/><text x="-3" fill="currentColor" dy=".32em">Warrington</text></g><g class="tick" transform="translate(130 632.532)"><line stroke="currentColor"/><text x="-3" fill="currentColor" dy=".32em">Cornwall</text></g><g class="tick" transform="translate(130 676.039)"><line stroke="currentColor"/><text x="-3" fill="currentColor" dy=".32em">Cambridgeshire</text></g><g class="tick" transform="translate(130 719.545)"><line stroke="currentColor"/><text x="-3" fill="currentColor" dy=".32em">Manchester</text></g></g></svg>