<svg xmlns="http://www.w3.org/2000/svg" width="800" height="800"><rect width="662" height="17.4" x="130" y="101.75" fill="#ef3340"/><rect width="383.07" height="17.4" x="130" y="145.26" fill="#706f6f"/><rect width="271.61" height="17.4" x="130" y="188.77" fill="#706f6f"/><rect width="181.28" height="17.4" x="130" y="232.27" fill="#706f6f"/><rect width="154.77" height="17.4" x="130" y="275.78" fill="#706f6f"/><rect width="143.13" height="17.4" x="130" y="319.29" fill="#706f6f"/><rect width="138.05" height="17.4" x="130" y="362.79" fill="#706f6f"/><rect width="125.43" height="17.4" x="130" y="406.3" fill="#706f6f"/><rect width="118.11" height="17.4" x="130" y="449.81" fill="#706f6f"/><rect width="116.58" height="17.4" x="130" y="493.31" fill="#706f6f"/><rect width="104.98" height="17.4" x="130" y="536.82" fill="#706f6f"/><rect width="103.76" height="17.4" x="130" y="580.32" fill="#706f6f"/><rect width="100.32" height="17.4" x="130" y="623.83" fill="#706f6f"/><rect width="96.44" height="17.4" x="130" y="667.34" fill="#706f6f"/><rect width="91.94" height="17.4" x="130" y="710.84" fill="#706f6f"/><g fill="#fff" font-family="Futura,sans-serif" text-anchor="middle"><text x="461" y="110.45" dy=".35em">£1.08bn</text><text x="321.53" y="153.96" dy=".35em">£630m</text><text x="265.81" y="197.47" dy=".35em">£445m</text><text x="220.64" y="240.97" dy=".35em">£295m</text><text x="207.38" y="284.48" dy=".35em">£255m</text><text x="201.57" y="327.99" dy=".35em">£235m</text><text x="199.03" y="371.49" dy=".35em">£225m</text><text x="192.71" y="415" dy=".35em">£205m</text><text x="189.05" y="458.51" dy=".35em">£195m</text><text x="188.29" y="502.01" dy=".35em">£190m</text><text x="182.49" y="545.52" dy=".35em">£170m</text><text x="181.88" y="589.03" dy=".35em">£170m</text><text x="180.16" y="632.53" dy=".35em">£165m</text><text x="178.22" y="676.04" dy=".35em">£160m</text><text x="175.97" y="719.55" dy=".35em">£150m</text></g><g fill="none" font-family="sans-serif" font-size="10" text-anchor="end" style="font:13px Futura,sans-serif"><g class="tick" transform="translate(130 110.45)"><line stroke="currentColor"/><text x="-3" fill="currentColor" dy=".32em">Thurrock</text></g><g class="tick" transform="translate(130 153.96)"><line stroke="currentColor"/><text x="-3" fill="currentColor" dy=".32em">Lancashire</text></g><g class="tick" transform="translate(130 197.47)"><line stroke="currentColor"/><text x="-3" fill="currentColor" dy=".32em">Plymouth</text></g><g class="tick" transform="translate(130 240.97)"><line stroke="currentColor"/><text x="-3" fill="currentColor" dy=".32em">Croydon</text></g><g class="tick" transform="translate(130 284.48)"><line stroke="currentColor"/><text x="-3" fill="currentColor" dy=".32em">Surrey</text></g><g class="tick" transform="translate(130 327.99)"><line stroke="currentColor"/><text x="-3" fill="currentColor" dy=".32em">Rotherham</text></g><g class="tick" transform="translate(130 371.5)"><line stroke="currentColor"/><text x="-3" fill="currentColor" dy=".32em">Birmingham</text></g><g class="tick" transform="translate(130 415)"><line stroke="currentColor"/><text x="-3" fill="currentColor" dy=".32em">Slough</text></g><g class="tick" transform="translate(130 458.5)"><line stroke="currentColor"/><text x="-3" fill="currentColor" dy=".32em">Blackpool</text></g><g class="tick" transform="translate(130 502.01)"><line stroke="currentColor"/><text x="-3" fill="currentColor" dy=".32em">West Dunbartonshire</text></g><g class="tick" transform="translate(130 545.52)"><line stroke="currentColor"/><text x="-3" fill="currentColor" dy=".32em">Kingston upon Hull</text></g><g class="tick" transform="translate(130 589.03)"><line stroke="currentColor"/><text x="-3" fill="currentColor" dy=".32em">Warrington</text></g><g class="tick" transform="translate(130 632.53)"><line stroke="currentColor"/><text x="-3" fill="currentColor" dy=".32em">Cornwall</text></g><g class="tick" transform="translate(130 676.04)"><line stroke="currentColor"/><text x="-3" fill="currentColor" dy=".32em">Cambridgeshire</text></g><g class="tick" transform="translate(130 719.55)"><line stroke="currentColor"/><text x="-3" fill="currentColor" dy=".32em">Manchester</text></g></g></svg>