<svg xmlns="http://www.w3.org/2000/svg" viewBox="0 0 129.1 63.69"><defs><style>.cls-1{fill:#fff;}.cls-2{fill:#cbcbcb;}</style></defs><title>footer-logo</title><g id="Layer_2" data-name="Layer 2"><g id="STORY_2_-_WITHout_ABOUT_BUREAU_copy" data-name="STORY 2 - WITHout ABOUT BUREAU copy"><path class="cls-1" d="M7,3.29V19.44H3V3.29H0V.3H10v3Z"/><path class="cls-1" d="M16.7,19.44V10.69H15.15v8.75H11.21V.3h3.94V7.38H16.7V.3h3.94V19.44Z"/><path class="cls-1" d="M22.63,19.44V.3h7.7v3H26.56V8.2h3.29v3H26.56v5.13H30.9v3.11Z"/><path class="cls-1" d="M48.12,14a7.62,7.62,0,0,1-.36,2.52,4.23,4.23,0,0,1-1,1.67,3.93,3.93,0,0,1-1.64.93,7.76,7.76,0,0,1-2.19.29H38.17V.3h4.73a6,6,0,0,1,2.26.36,3.3,3.3,0,0,1,1.41,1,4.14,4.14,0,0,1,.74,1.66,10.36,10.36,0,0,1,.21,2.19,4.59,4.59,0,0,1-.67,2.7,2.37,2.37,0,0,1-1.94,1,2.78,2.78,0,0,1,2.29,1.22A5.85,5.85,0,0,1,48.12,14ZM43.71,5.61a10.37,10.37,0,0,0-.07-1.38,3,3,0,0,0-.22-.85A.85.85,0,0,0,43,3a1.3,1.3,0,0,0-.56-.11H42V8h.72a.78.78,0,0,0,.74-.49A5,5,0,0,0,43.71,5.61Zm.27,8a6.53,6.53,0,0,0-.32-2.44,1,1,0,0,0-.95-.72H42v6.33h.75a1.69,1.69,0,0,0,.59-.09.68.68,0,0,0,.37-.4,3.3,3.3,0,0,0,.2-.95Q44,14.75,44,13.65Z"/><path class="cls-1" d="M58.71,17.43a3,3,0,0,1-.7,1.3,3.18,3.18,0,0,1-1.38.82,7.47,7.47,0,0,1-2.26.29,5.41,5.41,0,0,1-3.58-1,3.82,3.82,0,0,1-1.21-3.09V.3h3.94V15.37a3.23,3.23,0,0,0,.16,1.2.67.67,0,0,0,.69.37q.57,0,.71-.35a3.76,3.76,0,0,0,.14-1.22V.3h3.69V15.72A6.75,6.75,0,0,1,58.71,17.43Z"/><path class="cls-1" d="M66.88,19.44A6.42,6.42,0,0,1,66.57,18a17.25,17.25,0,0,1-.11-2V13.6a5,5,0,0,0-.29-2A1.1,1.1,0,0,0,65.06,11h-.27v8.42H60.9V.3h5.48a5.62,5.62,0,0,1,1.81.27,3.47,3.47,0,0,1,1.38.86,4,4,0,0,1,.9,1.51,6.73,6.73,0,0,1,.32,2.22,11.5,11.5,0,0,1-.14,1.92,3.39,3.39,0,0,1-.49,1.32,2.41,2.41,0,0,1-.95.82,4.46,4.46,0,0,1-1.5.4,2.65,2.65,0,0,1,1.38.42,2.39,2.39,0,0,1,.82,1,5.55,5.55,0,0,1,.4,1.56,16.68,16.68,0,0,1,.11,2q0,.65.06,1.38t.17,1.4q.11.66.25,1.2a2.4,2.4,0,0,0,.34.81Zm0-13.53a8.94,8.94,0,0,0-.11-1.62,1.94,1.94,0,0,0-.32-.83.83.83,0,0,0-.54-.31,5,5,0,0,0-.75,0h-.35V8.22h.8a1,1,0,0,0,1-.49A4.16,4.16,0,0,0,66.85,5.91Z"/><path class="cls-1" d="M72.51,19.44V.3h7.7v3H76.45V8.2h3.29v3H76.45v5.13h4.34v3.11Z"/><path class="cls-1" d="M87.66,19.44l-.4-3.09H85.42L85,19.44H81.61L84.6.27h3.61l3.54,19.16Zm-.85-6.53-.16-1.22q-.09-.65-.14-1.2t-.12-1.83q0-1.16-.12-2.55-.05,1.42-.1,2.6t-.1,1.83q0,.55-.11,1.18t-.11,1.21l-.15,1.3H87Q86.91,13.56,86.81,12.91Z"/><path class="cls-1" d="M101.84,17.43a3,3,0,0,1-.7,1.3,3.18,3.18,0,0,1-1.38.82,7.47,7.47,0,0,1-2.26.29,5.41,5.41,0,0,1-3.58-1,3.82,3.82,0,0,1-1.21-3.09V.3h3.94V15.37a3.23,3.23,0,0,0,.16,1.2.67.67,0,0,0,.69.37q.57,0,.71-.35a3.76,3.76,0,0,0,.14-1.22V.3H102V15.72A6.75,6.75,0,0,1,101.84,17.43Z"/><path class="cls-1" d="M119.93,9.89a31.74,31.74,0,0,1-.32,5,8.82,8.82,0,0,1-1,3A3.41,3.41,0,0,1,117,19.44a6.63,6.63,0,0,1-4.39,0,3.07,3.07,0,0,1-1.54-1.42,9.06,9.06,0,0,1-.95-3,32.67,32.67,0,0,1-.32-5.16,39.58,39.58,0,0,1,.26-5.08,8.68,8.68,0,0,1,.86-3A3,3,0,0,1,112.47.36,6.35,6.35,0,0,1,114.75,0a6.27,6.27,0,0,1,2.32.39,3.3,3.3,0,0,1,1.61,1.46,8.72,8.72,0,0,1,.95,3A33,33,0,0,1,119.93,9.89Zm-4.16,0q0-1.12,0-2t0-1.51q0-.66,0-1.18t-.06-1a3.78,3.78,0,0,0-.26-1.32.58.58,0,0,0-.54-.35.58.58,0,0,0-.55.35A3.78,3.78,0,0,0,114,4.19q0,.52,0,1.06t0,1.2q0,.66,0,1.49V12q0,.81,0,1.37c0,.37,0,.7,0,1s0,.58,0,.91a2.92,2.92,0,0,0,.26,1.3.64.64,0,0,0,.56.32.51.51,0,0,0,.5-.32,4.84,4.84,0,0,0,.25-1.3q0-.52.07-.93c0-.27,0-.59,0-1s0-.82,0-1.36Z"/><path class="cls-1" d="M125.54,3.29V8.4h3.06v3h-3.06v8H121.6V.3h7.5v3Z"/><path class="cls-2" d="M.77,41.36V22.23h4V41.36Z"/><path class="cls-2" d="M13.13,41.36l-1-3-.4-1.21q-.2-.61-.36-1.15t-.31-1q-.15-.45-.22-.72t-.24-.76l-.17-.67q-.09-.34-.16-.72l-.17-.91q0,1,.09,1.6t0,1.16q0,.54,0,1.1t0,1.41v4.88H6.75V22.23h3.44l.87,3,.35,1.16.32,1.11.26.93q.11.41.19.64c.1.3.18.56.24.8l.16.64c0,.19.09.37.12.55s.07.37.1.59q-.07-1.42-.1-2.8t0-2.83V22.23h3.54V41.36Z"/><path class="cls-2" d="M24.35,41.49H21L17.47,22.23h4q.1.72.25,1.72l.32,2.17q.17,1.17.36,2.47t.39,2.59q0,.35.07.8t0,.85c0,.3,0,.61,0,.92q0-.5,0-.95L23,32q0-.44.07-.79.17-1.29.39-2.59t.4-2.48q.19-1.18.36-2.17t.27-1.71H28Z"/><path class="cls-2" d="M29.2,41.36V22.23h7.7v3H33.14v4.91h3.29v3H33.14v5.13h4.34v3.11Z"/><path class="cls-2" d="M48.27,36.36a6.12,6.12,0,0,1-1.16,4,4.63,4.63,0,0,1-3.75,1.38,7,7,0,0,1-2-.25,3.46,3.46,0,0,1-1.46-.82A3.73,3.73,0,0,1,39,39.16a7.42,7.42,0,0,1-.32-2.36,8,8,0,0,1,.1-1.22q.1-.65.2-1.17l3.51-.12q-.07.57-.12,1.16t0,1.21a8.78,8.78,0,0,0,.07,1.28,2.3,2.3,0,0,0,.21.73.67.67,0,0,0,.32.32,1.31,1.31,0,0,0,.83,0,.49.49,0,0,0,.27-.29,2.33,2.33,0,0,0,.15-.65,10.31,10.31,0,0,0,0-1.15,10.15,10.15,0,0,0-.11-1.66,3,3,0,0,0-.39-1.1,2.66,2.66,0,0,0-.71-.75A11.75,11.75,0,0,0,42,32.77l-.95-.5A4.32,4.32,0,0,1,39,30a8.23,8.23,0,0,1-.6-3.15,5.27,5.27,0,0,1,1.16-3.71A4.45,4.45,0,0,1,43,21.93,4.68,4.68,0,0,1,46.31,23a4.23,4.23,0,0,1,1.13,3.2,6.17,6.17,0,0,1-.06.91q-.06.41-.16.88l-3.41.3c0-.25.07-.56.1-.92s0-.69,0-1a4.36,4.36,0,0,0-.2-1.63.73.73,0,0,0-.72-.41.66.66,0,0,0-.67.5,3.91,3.91,0,0,0-.17,1.27,5.83,5.83,0,0,0,.12,1.32,2.48,2.48,0,0,0,.36.86,2,2,0,0,0,.57.55q.34.21.73.41l1.15.6a6.2,6.2,0,0,1,1.44,1,4.75,4.75,0,0,1,1,1.37,6.89,6.89,0,0,1,.55,1.78A13.46,13.46,0,0,1,48.27,36.36Z"/><path class="cls-2" d="M55.34,25.22V41.36h-4V25.22h-3v-3h10v3Z"/><path class="cls-2" d="M59.58,41.36V22.23h4V41.36Z"/><path class="cls-2" d="M73.51,41.51l-.82-1.4a3.09,3.09,0,0,1-.93,1.16,2.68,2.68,0,0,1-1.63.44,7,7,0,0,1-2.14-.3,2.85,2.85,0,0,1-1.53-1.27,7.65,7.65,0,0,1-.91-2.79,31.25,31.25,0,0,1-.3-4.86,40.14,40.14,0,0,1,.29-5.34,9.75,9.75,0,0,1,.91-3.21A3.36,3.36,0,0,1,68,22.35a6,6,0,0,1,2.38-.42,4.1,4.1,0,0,1,3.3,1.17,6,6,0,0,1,1,3.84,8.84,8.84,0,0,1-.35,2.22l-3.66.12q.12-.57.22-1.28a9.45,9.45,0,0,0,.1-1.31A5.82,5.82,0,0,0,70.85,25a.59.59,0,0,0-.59-.42.6.6,0,0,0-.49.22,2.2,2.2,0,0,0-.27,1q-.09.81-.12,2.35t0,4.16q0,2.42,0,3.76a14.74,14.74,0,0,0,.17,2,1.33,1.33,0,0,0,.32.8.86.86,0,0,0,.5.14.81.81,0,0,0,.86-.62,9.18,9.18,0,0,0,.19-2.27q0-.7,0-1.33t-.07-1.06h-1V31h4.63V41.51Z"/><path class="cls-2" d="M82.33,41.36l-.4-3.09H80.09l-.4,3.09H76.27l3-19.16h3.61l3.54,19.16Zm-.85-6.53-.16-1.22q-.09-.65-.14-1.2t-.12-1.83q0-1.16-.12-2.55-.05,1.42-.1,2.6t-.1,1.83q0,.55-.11,1.18t-.11,1.21l-.15,1.3h1.27Q81.58,35.48,81.48,34.84Z"/><path class="cls-2" d="M92.54,25.22V41.36h-4V25.22h-3v-3h10v3Z"/><path class="cls-2" d="M96.78,41.36V22.23h4V41.36Z"/><path class="cls-2" d="M108.89,41.49h-3.31L102,22.23h4q.1.72.25,1.72l.32,2.17q.17,1.17.36,2.47t.39,2.59q0,.35.07.8t0,.85c0,.3,0,.61,0,.92q0-.5,0-.95l0-.83q0-.44.07-.79.17-1.29.39-2.59t.4-2.48q.19-1.18.36-2.17t.27-1.71h3.44Z"/><path class="cls-2" d="M113.75,41.36V22.23h7.7v3h-3.76v4.91H121v3h-3.29v5.13H122v3.11Z"/><path class="cls-2" d="M9.37,60.66a4,4,0,0,1-.72,1.78,2.84,2.84,0,0,1-1.43,1,7.92,7.92,0,0,1-2.33.29A5.09,5.09,0,0,1,1.2,62.56,5.09,5.09,0,0,1,0,58.83a9.3,9.3,0,0,1,.12-1.38Q.3,56.64.45,56l3.89-.07A9.83,9.83,0,0,0,4,57.5a13,13,0,0,0-.11,1.63,2.82,2.82,0,0,0,.24,1.43.76.76,0,0,0,.66.34.62.62,0,0,0,.65-.36,4.31,4.31,0,0,0,.15-1.41v-15h4V57.91A16,16,0,0,1,9.37,60.66Z"/><path class="cls-2" d="M21.33,53.75a31.74,31.74,0,0,1-.32,5,8.82,8.82,0,0,1-1,3,3.41,3.41,0,0,1-1.62,1.48,6,6,0,0,1-2.27.4A6,6,0,0,1,14,63.34a3.07,3.07,0,0,1-1.54-1.42,9.06,9.06,0,0,1-.95-3,32.67,32.67,0,0,1-.32-5.16,39.58,39.58,0,0,1,.26-5.08,8.68,8.68,0,0,1,.86-3,3,3,0,0,1,1.53-1.43,6.35,6.35,0,0,1,2.28-.36,6.27,6.27,0,0,1,2.32.39,3.3,3.3,0,0,1,1.61,1.46,8.72,8.72,0,0,1,.95,3A33,33,0,0,1,21.33,53.75Zm-4.16,0q0-1.12,0-2t0-1.51q0-.66,0-1.18T17,48a3.78,3.78,0,0,0-.26-1.32.58.58,0,0,0-.54-.35.58.58,0,0,0-.55.35A3.78,3.78,0,0,0,15.45,48q0,.52,0,1.06t0,1.2q0,.66,0,1.49v4.09q0,.81,0,1.37c0,.37,0,.7,0,1s0,.58,0,.91a2.92,2.92,0,0,0,.26,1.3.64.64,0,0,0,.56.32.51.51,0,0,0,.5-.32,4.84,4.84,0,0,0,.25-1.3q0-.52.07-.93c0-.27,0-.59,0-1s0-.82,0-1.36Z"/><path class="cls-2" d="M32.12,61.29a3,3,0,0,1-.7,1.3A3.18,3.18,0,0,1,30,63.4a7.47,7.47,0,0,1-2.26.29,5.41,5.41,0,0,1-3.58-1A3.82,3.82,0,0,1,23,59.58V44.15h3.94V59.23a3.23,3.23,0,0,0,.16,1.2.67.67,0,0,0,.69.37q.57,0,.71-.35a3.76,3.76,0,0,0,.14-1.22V44.15h3.69V59.58A6.75,6.75,0,0,1,32.12,61.29Z"/><path class="cls-2" d="M40.29,63.29A6.42,6.42,0,0,1,40,61.81a17.25,17.25,0,0,1-.11-2V57.46a5,5,0,0,0-.29-2,1.1,1.1,0,0,0-1.11-.64H38.2v8.42H34.31V44.15h5.48a5.62,5.62,0,0,1,1.81.27,3.47,3.47,0,0,1,1.38.86,4,4,0,0,1,.9,1.51A6.73,6.73,0,0,1,44.2,49a11.5,11.5,0,0,1-.14,1.92,3.39,3.39,0,0,1-.49,1.32,2.41,2.41,0,0,1-.95.82,4.46,4.46,0,0,1-1.5.4,2.65,2.65,0,0,1,1.38.42,2.39,2.39,0,0,1,.82,1,5.55,5.55,0,0,1,.4,1.56,16.68,16.68,0,0,1,.11,2q0,.65.06,1.38t.17,1.4q.11.66.25,1.2a2.4,2.4,0,0,0,.34.81Zm0-13.53a8.94,8.94,0,0,0-.11-1.62,1.94,1.94,0,0,0-.32-.83A.83.83,0,0,0,39.3,47a5,5,0,0,0-.75,0H38.2v5.13H39a1,1,0,0,0,1-.49A4.16,4.16,0,0,0,40.27,49.76Z"/><path class="cls-2" d="M52.3,63.29l-1-3-.4-1.21q-.2-.61-.36-1.15t-.31-1q-.15-.45-.22-.72t-.24-.76l-.17-.67q-.09-.34-.16-.72l-.17-.91q0,1,.09,1.6t0,1.16q0,.54,0,1.1t0,1.41v4.88H45.92V44.15h3.44l.87,3,.35,1.16.32,1.11.26.93q.11.41.19.64c.1.3.18.56.24.8l.16.64c0,.19.09.37.12.55s.07.37.1.59q-.07-1.42-.1-2.8t0-2.83V44.15h3.54V63.29Z"/><path class="cls-2" d="M62.67,63.29l-.4-3.09H60.43L60,63.29H56.61l3-19.16h3.61l3.54,19.16Zm-.85-6.53-.16-1.22q-.09-.65-.14-1.2t-.12-1.83q0-1.16-.12-2.55-.05,1.42-.1,2.6t-.1,1.83q0,.55-.11,1.18t-.11,1.21l-.15,1.3H62Q61.92,57.41,61.82,56.76Z"/><path class="cls-2" d="M67.93,63.29V44.15h3.94v16h4.36v3.11Z"/><path class="cls-2" d="M77.49,63.29V44.15h4V63.29Z"/><path class="cls-2" d="M93.09,58.28a6.12,6.12,0,0,1-1.16,4,4.63,4.63,0,0,1-3.75,1.38,7,7,0,0,1-2-.25,3.46,3.46,0,0,1-1.46-.82,3.73,3.73,0,0,1-.92-1.53,7.42,7.42,0,0,1-.32-2.36,8,8,0,0,1,.1-1.22q.1-.65.2-1.17l3.51-.12q-.07.57-.12,1.16t0,1.21a8.78,8.78,0,0,0,.07,1.28,2.3,2.3,0,0,0,.21.73.67.67,0,0,0,.32.32,1.31,1.31,0,0,0,.83,0,.49.49,0,0,0,.27-.29A2.33,2.33,0,0,0,89,60a10.31,10.31,0,0,0,0-1.15A10.15,10.15,0,0,0,89,57.2a3,3,0,0,0-.39-1.1,2.66,2.66,0,0,0-.71-.75,11.75,11.75,0,0,0-1.06-.66l-.95-.5A4.32,4.32,0,0,1,83.8,52a8.23,8.23,0,0,1-.6-3.15,5.27,5.27,0,0,1,1.16-3.71,4.45,4.45,0,0,1,3.43-1.25,4.68,4.68,0,0,1,3.35,1.08,4.23,4.23,0,0,1,1.13,3.2,6.17,6.17,0,0,1-.06.91q-.06.41-.16.88l-3.41.3c0-.25.07-.56.1-.92s0-.69,0-1a4.36,4.36,0,0,0-.2-1.63.73.73,0,0,0-.72-.41.66.66,0,0,0-.67.5A3.91,3.91,0,0,0,87,48.07a5.83,5.83,0,0,0,.12,1.32,2.48,2.48,0,0,0,.36.86,2,2,0,0,0,.57.55q.34.21.73.41l1.15.6a6.2,6.2,0,0,1,1.44,1,4.75,4.75,0,0,1,1,1.37A6.89,6.89,0,0,1,92.92,56,13.46,13.46,0,0,1,93.09,58.28Z"/><path class="cls-2" d="M103.36,63.29V56.64q0-.87,0-2.06t0-2.26q0-1.25,0-2.54l-.3,2.89q-.12,1.27-.29,2.72t-.29,2.74q-.1.75-.19,1.64t-.16,1.69l-.2,1.82H99.35q-.1-.9-.2-1.82t-.2-1.69q-.1-.9-.2-1.64-.17-1.3-.35-2.77t-.3-2.72q-.17-1.44-.32-2.87l0,2.42q0,1,0,2.23t0,2.16v6.7H94.51V44.15h4.41l.25,1.27q.15.77.34,1.71t.39,2l.4,2.09q.1.52.17,1.16t.12,1.21q.07.65.1,1.35,0-.7.12-1.35t.12-1.21q.07-.64.17-1.13.17-1,.36-2.11t.36-2q.17-.95.3-1.71t.2-1.26h4.56V63.29Z"/></g></g></svg>